<svg width="141" height="34" viewBox="0 0 141 34" fill="none" xmlns="http://www.w3.org/2000/svg">
<path d="M141 6.29294V26.0335H136.894V6.29294H141Z" fill="#EF8C00"/>
<path d="M133.604 6.29294V26.0335H129.498V6.29294H133.604Z" fill="#EF8C00"/>
<path d="M119.541 26.3226C118.044 26.3226 116.749 26.0045 115.657 25.3683C114.571 24.7258 113.732 23.8325 113.141 22.6887C112.55 21.5385 112.254 20.2051 112.254 18.6886C112.254 17.1592 112.55 15.8226 113.141 14.6788C113.732 13.5285 114.571 12.6353 115.657 11.9991C116.749 11.3565 118.044 11.0352 119.541 11.0352C121.038 11.0352 122.33 11.3565 123.416 11.9991C124.508 12.6353 125.35 13.5285 125.941 14.6788C126.533 15.8226 126.828 17.1592 126.828 18.6886C126.828 20.2051 126.533 21.5385 125.941 22.6887C125.35 23.8325 124.508 24.7258 123.416 25.3683C122.33 26.0045 121.038 26.3226 119.541 26.3226ZM119.56 23.1418C120.242 23.1418 120.81 22.949 121.267 22.5634C121.723 22.1714 122.067 21.6381 122.298 20.9634C122.536 20.2886 122.655 19.5207 122.655 18.6596C122.655 17.7986 122.536 17.0307 122.298 16.3559C122.067 15.6812 121.723 15.1479 121.267 14.7559C120.81 14.3639 120.242 14.1679 119.56 14.1679C118.873 14.1679 118.295 14.3639 117.825 14.7559C117.363 15.1479 117.013 15.6812 116.775 16.3559C116.543 17.0307 116.428 17.7986 116.428 18.6596C116.428 19.5207 116.543 20.2886 116.775 20.9634C117.013 21.6381 117.363 22.1714 117.825 22.5634C118.295 22.949 118.873 23.1418 119.56 23.1418Z" fill="#EF8C00"/>
<path d="M95.5933 26.0335V6.29294H103.382C104.879 6.29294 106.154 6.57889 107.208 7.1508C108.262 7.71629 109.065 8.50347 109.618 9.51234C110.177 10.5148 110.457 11.6715 110.457 12.9824C110.457 14.2933 110.174 15.4499 109.608 16.4524C109.043 17.4548 108.223 18.2356 107.15 18.7946C106.084 19.3537 104.792 19.6332 103.275 19.6332H98.3114V16.2885H102.601C103.404 16.2885 104.066 16.1504 104.586 15.874C105.113 15.5913 105.505 15.2025 105.762 14.7077C106.026 14.2065 106.158 13.6314 106.158 12.9824C106.158 12.3269 106.026 11.755 105.762 11.2666C105.505 10.7718 105.113 10.3895 104.586 10.1196C104.059 9.84328 103.391 9.70512 102.581 9.70512H99.7669V26.0335H95.5933Z" fill="#EF8C00"/>
<path d="M86.6827 26.2354C85.2562 26.2354 84.0256 25.9205 82.991 25.2908C81.9629 24.6546 81.1693 23.7678 80.6102 22.6304C80.0576 21.4866 79.7812 20.1564 79.7812 18.6399C79.7812 17.1234 80.0576 15.7868 80.6102 14.6301C81.1693 13.467 81.9468 12.5609 82.9428 11.9119C83.9453 11.2565 85.1148 10.9287 86.4514 10.9287C87.2225 10.9287 87.984 11.0573 88.7358 11.3143C89.4877 11.5713 90.172 11.989 90.7889 12.5674C91.4058 13.1393 91.8974 13.8975 92.2637 14.8421C92.63 15.7868 92.8131 16.9499 92.8131 18.3314V19.2953H81.4006V17.329H90.4997C90.4997 16.4936 90.3327 15.7482 89.9985 15.0928C89.6708 14.4373 89.2017 13.92 88.5912 13.5409C87.9872 13.1618 87.2739 12.9722 86.4514 12.9722C85.5453 12.9722 84.7614 13.1971 84.0995 13.6469C83.444 14.0903 82.9396 14.6686 82.5862 15.3819C82.2328 16.0952 82.056 16.8599 82.056 17.676V18.9869C82.056 20.105 82.2488 21.0528 82.6344 21.8304C83.0264 22.6015 83.5694 23.1895 84.2634 23.5943C84.9574 23.9927 85.7638 24.1919 86.6827 24.1919C87.2803 24.1919 87.8201 24.1084 88.3021 23.9413C88.7904 23.7678 89.2113 23.5108 89.5648 23.1702C89.9182 22.8232 90.1913 22.3927 90.3841 21.8786L92.5818 22.4955C92.3504 23.2409 91.9617 23.8963 91.4155 24.4618C90.8692 25.0209 90.1945 25.4578 89.3913 25.7727C88.588 26.0812 87.6852 26.2354 86.6827 26.2354Z" fill="black"/>
<path d="M76.309 6.18643V25.927H74.0342V6.18643H76.309Z" fill="black"/>
<path d="M67.5928 25.927V11.1215H69.8676V25.927H67.5928ZM68.7495 8.65398C68.3061 8.65398 67.9237 8.50297 67.6024 8.20095C67.2876 7.89893 67.1301 7.53586 67.1301 7.11175C67.1301 6.68764 67.2876 6.32457 67.6024 6.02255C67.9237 5.72053 68.3061 5.56952 68.7495 5.56952C69.1929 5.56952 69.572 5.72053 69.8869 6.02255C70.2082 6.32457 70.3688 6.68764 70.3688 7.11175C70.3688 7.53586 70.2082 7.89893 69.8869 8.20095C69.572 8.50297 69.1929 8.65398 68.7495 8.65398Z" fill="black"/>
<path d="M57.0285 31.7874C55.9297 31.7874 54.9851 31.646 54.1947 31.3633C53.4043 31.087 52.7456 30.7207 52.2187 30.2644C51.6982 29.8146 51.2837 29.3327 50.9753 28.8186L52.7874 27.5463C52.993 27.8162 53.2533 28.1246 53.5682 28.4716C53.883 28.825 54.3136 29.1303 54.8598 29.3873C55.4124 29.6508 56.1353 29.7825 57.0285 29.7825C58.2238 29.7825 59.2102 29.4933 59.9877 28.915C60.7652 28.3367 61.154 27.4306 61.154 26.1968V23.1895H60.9612C60.7942 23.4594 60.5564 23.7935 60.248 24.1919C59.9459 24.5839 59.509 24.9341 58.9371 25.2426C58.3716 25.5446 57.6069 25.6956 56.643 25.6956C55.4478 25.6956 54.3746 25.4128 53.4236 24.8474C52.479 24.2819 51.7303 23.4594 51.1777 22.3798C50.6315 21.3002 50.3584 19.9893 50.3584 18.4471C50.3584 16.9306 50.6251 15.6101 51.1584 14.4855C51.6918 13.3545 52.434 12.4806 53.385 11.8637C54.3361 11.2404 55.4349 10.9287 56.6815 10.9287C57.6454 10.9287 58.4101 11.0894 58.9756 11.4107C59.5475 11.7256 59.9845 12.0854 60.2865 12.4902C60.595 12.8887 60.8327 13.2164 60.9998 13.4734H61.2311V11.1215H63.4288V26.351C63.4288 27.6234 63.1396 28.658 62.5613 29.4548C61.9894 30.258 61.2183 30.846 60.248 31.2187C59.2841 31.5978 58.2109 31.7874 57.0285 31.7874ZM56.9514 23.6521C57.8639 23.6521 58.635 23.4433 59.2648 23.0256C59.8945 22.6079 60.3733 22.0071 60.701 21.2231C61.0287 20.4392 61.1926 19.501 61.1926 18.4086C61.1926 17.3418 61.0319 16.4004 60.7106 15.5843C60.3893 14.7683 59.9138 14.1289 59.2841 13.6662C58.6543 13.2035 57.8768 12.9722 56.9514 12.9722C55.9875 12.9722 55.1843 13.2164 54.5417 13.7048C53.9055 14.1931 53.4268 14.8486 53.1055 15.6711C52.7906 16.4936 52.6332 17.4061 52.6332 18.4086C52.6332 19.4367 52.7938 20.346 53.1151 21.1364C53.4429 21.9203 53.9248 22.5372 54.561 22.9871C55.2036 23.4304 56.0004 23.6521 56.9514 23.6521Z" fill="black"/>
<path d="M33.8277 25.927H31.3215L38.57 6.18643H41.0376L48.2861 25.927H45.7799L39.8809 9.30945H39.7267L33.8277 25.927ZM34.753 18.2158H44.8546V20.3364H34.753V18.2158Z" fill="black"/>
<path d="M22.5184 9.26547C22.5184 8.88831 22.5182 8.62501 22.505 8.41888C22.4916 8.21035 22.468 8.13579 22.46 8.11639L22.4527 8.09814L22.446 8.07988C22.3757 7.88714 22.2236 7.73557 22.0309 7.66541L22.0132 7.65871L21.995 7.65141C21.9758 7.64343 21.9016 7.6198 21.6925 7.60637C21.4864 7.59314 21.2231 7.59238 20.8459 7.59237H8.86343C8.48626 7.59237 8.22297 7.59315 8.01684 7.60637C7.80756 7.61982 7.73281 7.64345 7.71375 7.65141L7.6961 7.65871L7.67784 7.66541C7.48524 7.73562 7.33358 7.88727 7.26337 8.07988L7.25668 8.09814L7.24937 8.11579C7.24141 8.13485 7.21778 8.2096 7.20433 8.41888C7.19111 8.62501 7.19034 8.8883 7.19034 9.26547V29.9037C7.19034 30.2809 7.1911 30.5442 7.20433 30.7503C7.21105 30.8549 7.22013 30.9259 7.22868 30.973L7.24937 31.0528L7.25668 31.071L7.26337 31.0887C7.33353 31.2814 7.48512 31.4335 7.67784 31.5038L7.6961 31.5105L7.71436 31.5178C7.73369 31.5258 7.80819 31.5494 8.01684 31.5628C8.22297 31.576 8.48626 31.5768 8.86343 31.5768H20.8459C21.2231 31.5768 21.4864 31.576 21.6925 31.5628C21.9015 31.5494 21.9758 31.5257 21.995 31.5178L22.0132 31.5105L22.0309 31.5038C22.2237 31.4336 22.3758 31.2816 22.446 31.0887L22.4527 31.071L22.46 31.0528C22.468 31.0334 22.4916 30.959 22.505 30.7503C22.5182 30.5442 22.5184 30.2809 22.5184 29.9037V9.26547ZM24.1805 29.9037C24.1805 30.261 24.1809 30.5854 24.1635 30.8568C24.147 31.1133 24.1104 31.3923 24.0071 31.6565L24.0077 31.6571C23.7695 32.3116 23.2538 32.8272 22.5993 33.0655L22.5987 33.0649C22.3344 33.1683 22.0556 33.2048 21.799 33.2213C21.5276 33.2387 21.2033 33.2383 20.8459 33.2383H8.86343C8.50609 33.2383 8.1817 33.2387 7.91033 33.2213C7.65363 33.2048 7.37439 33.1684 7.11 33.0649V33.0655C7.10656 33.0642 7.10308 33.0625 7.09965 33.0612C7.09112 33.0578 7.08198 33.055 7.07348 33.0515V33.0509C6.43641 32.807 5.93541 32.2994 5.70166 31.6571L5.70227 31.6565C5.59889 31.3923 5.56233 31.1133 5.54585 30.8568C5.52843 30.5854 5.52881 30.2611 5.52881 29.9037V9.26547C5.52881 8.90812 5.52843 8.58374 5.54585 8.31237C5.56308 8.04407 5.60091 7.75036 5.71565 7.47552H5.71626C5.95551 6.85063 6.44859 6.35755 7.07348 6.1183V6.11769C7.08197 6.11415 7.09113 6.11136 7.09965 6.10796C7.10309 6.10669 7.10656 6.10495 7.11 6.1037V6.1043C7.3744 6.00078 7.65362 5.96438 7.91033 5.94789C8.1817 5.93047 8.50609 5.93085 8.86343 5.93085H20.8459C21.2033 5.93085 21.5276 5.93046 21.799 5.94789C22.0556 5.96437 22.3344 6.00091 22.5987 6.1043L22.5993 6.1037C23.2416 6.33745 23.7492 6.83844 23.9931 7.47552H23.9937C24.1084 7.75036 24.1462 8.04407 24.1635 8.31237C24.1809 8.58374 24.1805 8.90813 24.1805 9.26547V29.9037Z" fill="#EF8C00"/>
<path d="M16.9896 3.33459C16.9896 2.95743 16.9894 2.69413 16.9762 2.488C16.9628 2.27947 16.9392 2.20491 16.9311 2.18552L16.9238 2.16726L16.9171 2.149C16.8469 1.95626 16.6948 1.80469 16.5021 1.73453L16.4844 1.72784L16.4662 1.72053C16.447 1.71255 16.3728 1.68892 16.1637 1.6755C15.9575 1.66226 15.6943 1.6615 15.3171 1.6615H3.33462C2.95745 1.6615 2.69417 1.66227 2.48803 1.6755C2.27875 1.68894 2.204 1.71257 2.18494 1.72053L2.16729 1.72784L2.14903 1.73453C1.95643 1.80474 1.80477 1.9564 1.73456 2.149L1.72787 2.16726L1.72056 2.18491C1.71261 2.20397 1.68897 2.27872 1.67553 2.488C1.6623 2.69413 1.66153 2.95742 1.66153 3.33459V23.9728C1.66153 24.35 1.6623 24.6133 1.67553 24.8194C1.68224 24.924 1.69132 24.9951 1.69987 25.0422L1.72056 25.1219L1.72787 25.1402L1.73456 25.1578C1.80472 25.3506 1.95631 25.5026 2.14903 25.5729L2.16729 25.5796L2.18555 25.5869C2.20488 25.5949 2.27938 25.6185 2.48803 25.6319C2.69416 25.6451 2.95746 25.6459 3.33462 25.6459H15.3171C15.6943 25.6459 15.9575 25.6451 16.1637 25.6319C16.3727 25.6185 16.447 25.5949 16.4662 25.5869L16.4844 25.5796L16.5021 25.5729C16.6949 25.5027 16.8469 25.3507 16.9171 25.1578L16.9238 25.1402L16.9311 25.1219C16.9392 25.1026 16.9628 25.0281 16.9762 24.8194C16.9894 24.6133 16.9896 24.35 16.9896 23.9728V3.33459ZM18.6517 23.9728C18.6517 24.3302 18.6521 24.6545 18.6347 24.9259C18.6182 25.1825 18.5816 25.4614 18.4783 25.7256L18.4789 25.7263C18.2406 26.3807 17.725 26.8964 17.0705 27.1346L17.0699 27.134C16.8056 27.2374 16.5268 27.2739 16.2702 27.2904C15.9988 27.3078 15.6744 27.3074 15.3171 27.3074H3.33462C2.97728 27.3074 2.65289 27.3078 2.38152 27.2904C2.12482 27.2739 1.84558 27.2375 1.58119 27.134V27.1346C1.57775 27.1333 1.57427 27.1316 1.57084 27.1303C1.56231 27.1269 1.55317 27.1241 1.54467 27.1206V27.12C0.907603 26.8761 0.406601 26.3685 0.172848 25.7263L0.173457 25.7256C0.0700833 25.4614 0.0335199 25.1825 0.017042 24.9259C-0.000377606 24.6545 6.44305e-07 24.3302 6.56726e-07 23.9728V3.33459C6.56726e-07 2.97725 -0.000375284 2.65286 0.017042 2.38149C0.0342748 2.11319 0.0721061 1.81948 0.186846 1.54464H0.187455C0.426703 0.919748 0.919779 0.426672 1.54467 0.187424V0.186816C1.55317 0.183271 1.56232 0.180478 1.57084 0.177078C1.57428 0.17581 1.57775 0.174071 1.58119 0.172818V0.173426C1.84559 0.0699048 2.12481 0.0334995 2.38152 0.0170115C2.65289 -0.000405771 2.97728 -2.98296e-05 3.33462 -2.98296e-05H15.3171C15.6744 -2.99111e-05 15.9988 -0.00041271 16.2702 0.0170115C16.5268 0.0334912 16.8056 0.0700303 17.0699 0.173426L17.0705 0.172818C17.7128 0.406576 18.2204 0.907558 18.4643 1.54464H18.4649C18.5796 1.81948 18.6174 2.11319 18.6347 2.38149C18.6521 2.65286 18.6517 2.97725 18.6517 3.33459V23.9728Z" fill="#EF8C00"/>
</svg>
